{"asset":{"version":"2.0","generator":"babylon.js glTF exporter for 3dsmax 2021 v20211115.1"},"scene":0,"scenes":[{"nodes":[0,1,2,3,4,5,6,7,8,13,14,15,21,22,23,24,25,26,27]}],"nodes":[{"mesh":0,"translation":[0.0,-0.0889,2.09059477],"rotation":[-1.14838156E-06,-1.14838156E-06,1.0,-1.31878015E-12],"name":"Glass"},{"mesh":1,"translation":[-3.68299985,-0.0889,3.48615],"rotation":[-1.744428E-06,-1.744428E-06,1.0,-3.04302915E-12],"name":"Left Engine"},{"mesh":2,"translation":[0.0,-0.4191,3.68299985],"rotation":[-1.62521872E-06,-1.62521872E-06,1.0,-2.641336E-12],"name":"Main Engine"},{"mesh":3,"translation":[3.68299985,-0.0889,3.48615],"rotation":[-1.744428E-06,-1.744428E-06,1.0,-3.04302915E-12],"name":"Right Engine"},{"mesh":4,"translation":[0.0,-0.0889,2.09059477],"rotation":[-2.07026937E-06,-2.07026937E-06,1.0,-4.286015E-12],"name":"Hull"},{"mesh":5,"translation":[0.0,-0.0889,2.09059477],"rotation":[-1.86363729E-06,-1.86363729E-06,1.0,-3.47314386E-12],"name":"Cockpit"},{"mesh":6,"translation":[0.0,-0.1016,2.54],"rotation":[-1.86363729E-06,-1.86363729E-06,1.0,-3.47314386E-12],"name":"Screen"},{"mesh":7,"translation":[-0.00277967518,0.132043734,0.882439137],"name":"Box06"},{"children":[9,10,11,12],"translation":[-0.42164,0.190499991,1.27],"name":"Group01"},{"mesh":8,"translation":[0.0367449448,-0.0466658026,1.93786619E-07],"scale":[0.26747787,0.26747787,0.26747787],"name":"Cylinder02"},{"mesh":9,"translation":[0.05434019,0.04844932,1.93786619E-07],"rotation":[0.49999997,-0.5000001,0.50000006,0.49999994],"scale":[0.26747787,0.26747787,0.26747787],"name":"Button"},{"mesh":10,"translation":[-0.0311944131,-0.0466658026,1.93786619E-07],"scale":[0.26747787,0.26747787,0.26747787],"name":"Cylinder01"},{"mesh":11,"translation":[0.06392064,0.04844932,1.93786619E-07],"rotation":[0.49999997,-0.5000001,0.50000006,0.49999994],"scale":[0.26747787,0.26747787,0.26747787],"name":"Cylinder03"},{"mesh":12,"translation":[-0.416855365,0.1397,1.40621054],"name":"Thrust Panel"},{"mesh":13,"translation":[-0.416855365,0.1397,1.40621054],"name":"Thrust Panel Base"},{"children":[16,17,18,19,20],"translation":[-0.00443747127,0.219852656,1.86889148],"name":"Chair"},{"mesh":14,"translation":[0.00443747127,-0.341808915,0.130248636],"rotation":[0.10886687,0.0,0.0,0.994056344],"name":"Box01"},{"mesh":15,"translation":[0.00443747127,0.294497341,0.3216478],"rotation":[0.0436193757,0.0,0.0,0.999048233],"name":"Box02"},{"mesh":16,"translation":[0.00443747127,0.0341473334,0.284887254],"rotation":[0.0654031262,0.0,0.0,0.997858942],"name":"Box03"},{"mesh":17,"translation":[0.00443747127,-0.09285267,0.221387252],"rotation":[0.10886687,0.0,0.0,0.994056344],"name":"Box04"},{"mesh":18,"translation":[0.00443747127,-0.6770527,-0.306791335],"rotation":[0.0,1.49011612E-08,0.0,1.0],"name":"Box05"},{"mesh":19,"translation":[0.0,-0.1016,2.794],"rotation":[-1.86363729E-06,4.3711502E-08,1.0,-5.96045631E-08],"name":"Keyboard"},{"translation":[-0.00277967518,-0.40135625,3.676439],"rotation":[-0.707106769,0.0,0.0,0.707106769],"scale":[0.25,0.099999994,1.0],"name":"Main 1"},{"translation":[-0.00277967518,-0.40135625,4.311439],"rotation":[-0.707106769,0.0,0.0,0.707106769],"scale":[0.299999982,0.199999988,1.0],"name":"Main 2"},{"translation":[3.68299985,-0.0762,3.81],"rotation":[-0.707106769,0.0,0.0,0.707106769],"scale":[0.149999991,0.09999999,0.799999952],"name":"Right 2"},{"translation":[3.68299985,-0.0762,3.429],"rotation":[-0.707106769,0.0,0.0,0.707106769],"scale":[0.149999991,0.149999991,1.0],"name":"Right 1"},{"translation":[-3.68299985,-0.0762,3.81],"rotation":[-0.707106769,0.0,0.0,0.707106769],"scale":[0.149999991,0.09999999,0.799999952],"name":"Left 2"},{"translation":[-3.68299985,-0.0762,3.429],"rotation":[-0.707106769,0.0,0.0,0.707106769],"scale":[0.149999991,0.149999991,1.0],"name":"Left 1"}],"meshes":[{"primitives":[{"attributes":{"POSITION":1,"NORMAL":2,"TEXCOORD_0":3},"indices":0,"material":0}],"name":"Glass"},{"primitives":[{"attributes":{"POSITION":5,"NORMAL":6,"TEXCOORD_0":7},"indices":4,"material":1}],"name":"Left Engine"},{"primitives":[{"attributes":{"POSITION":9,"NORMAL":10,"TEXCOORD_0":11},"indices":8,"material":1}],"name":"Main Engine"},{"primitives":[{"attributes":{"POSITION":13,"NORMAL":14,"TEXCOORD_0":15},"indices":12,"material":1}],"name":"Right Engine"},{"primitives":[{"attributes":{"POSITION":17,"NORMAL":18,"TEXCOORD_0":19},"indices":16,"material":2}],"name":"Hull"},{"primitives":[{"attributes":{"POSITION":21,"NORMAL":22,"TEXCOORD_0":23},"indices":20,"material":3}],"name":"Cockpit"},{"primitives":[{"attributes":{"POSITION":25,"NORMAL":26,"TEXCOORD_0":27},"indices":24,"material":4}],"name":"Screen"},{"primitives":[{"attributes":{"POSITION":29,"NORMAL":30,"TEXCOORD_0":31},"indices":28,"material":5}],"name":"Box06"},{"primitives":[{"attributes":{"POSITION":33,"NORMAL":34,"TEXCOORD_0":35},"indices":32,"material":1}],"name":"Cylinder02"},{"primitives":[{"attributes":{"POSITION":37,"NORMAL":38,"TEXCOORD_0":39},"indices":36}],"name":"Button"},{"primitives":[{"attributes":{"POSITION":41,"NORMAL":42,"TEXCOORD_0":43},"indices":40,"material":1}],"name":"Cylinder01"},{"primitives":[{"attributes":{"POSITION":45,"NORMAL":46,"TEXCOORD_0":47},"indices":44,"material":1}],"name":"Cylinder03"},{"primitives":[{"attributes":{"POSITION":49,"NORMAL":50,"TEXCOORD_0":51},"indices":48,"material":6}],"name":"Thrust Panel"},{"primitives":[{"attributes":{"POSITION":53,"NORMAL":54,"TEXCOORD_0":55},"indices":52,"material":5}],"name":"Thrust Panel Base"},{"primitives":[{"attributes":{"POSITION":57,"NORMAL":58,"TEXCOORD_0":59},"indices":56,"material":7}],"name":"Box01"},{"primitives":[{"attributes":{"POSITION":61,"NORMAL":62,"TEXCOORD_0":63},"indices":60,"material":7}],"name":"Box02"},{"primitives":[{"attributes":{"POSITION":65,"NORMAL":66,"TEXCOORD_0":67},"indices":64,"material":7}],"name":"Box03"},{"primitives":[{"attributes":{"POSITION":69,"NORMAL":70,"TEXCOORD_0":71},"indices":68,"material":7}],"name":"Box04"},{"primitives":[{"attributes":{"POSITION":73,"NORMAL":74,"TEXCOORD_0":75},"indices":72,"material":7}],"name":"Box05"},{"primitives":[{"attributes":{"POSITION":77,"NORMAL":78,"TEXCOORD_0":79},"indices":76,"material":8}],"name":"Keyboard"}],"accessors":[{"bufferView":0,"componentType":5123,"count":2022,"type":"SCALAR","name":"accessorIndices"},{"bufferView":1,"componentType":5126,"count":406,"max":[0.8239319,-0.380999982,0.151057482],"min":[-0.831731558,-0.8889995,-2.675191],"type":"VEC3","name":"accessorPositions"},{"bufferView":1,"byteOffset":4872,"componentType":5126,"count":406,"type":"VEC3","name":"accessorNormals"},{"bufferView":2,"componentType":5126,"count":406,"type":"VEC2","name":"accessorUVs"},{"bufferView":0,"byteOffset":4044,"componentType":5123,"count":7488,"type":"SCALAR","name":"accessorIndices"},{"bufferView":1,"byteOffset":9744,"componentType":5126,"count":1273,"max":[0.405329943,0.311035842,0.2928632],"min":[-0.402310848,-0.307295352,-0.40370515],"type":"VEC3","name":"accessorPositions"},{"bufferView":1,"byteOffset":25020,"componentType":5126,"count":1273,"type":"VEC3","name":"accessorNormals"},{"bufferView":2,"byteOffset":3248,"componentType":5126,"count":1273,"type":"VEC2","name":"accessorUVs"},{"bufferView":0,"byteOffset":19020,"componentType":5123,"count":8064,"type":"SCALAR","name":"accessorIndices"},{"bufferView":1,"byteOffset":40296,"componentType":5126,"count":1592,"max":[1.41237724,0.489837766,0.6118902],"min":[-1.41238081,-0.46787855,-1.17935431],"type":"VEC3","name":"accessorPositions"},{"bufferView":1,"byteOffset":59400,"componentType":5126,"count":1592,"type":"VEC3","name":"accessorNormals"},{"bufferView":2,"byteOffset":13432,"componentType":5126,"count":1592,"type":"VEC2","name":"accessorUVs"},{"bufferView":0,"byteOffset":35148,"componentType":5123,"count":7488,"type":"SCALAR","name":"accessorIndices"},{"bufferView":1,"byteOffset":78504,"componentType":5126,"count":1273,"max":[0.405329257,0.311035872,0.292863429],"min":[-0.402311355,-0.307295352,-0.40370515],"type":"VEC3","name":"accessorPositions"},{"bufferView":1,"byteOffset":93780,"componentType":5126,"count":1273,"type":"VEC3","name":"accessorNormals"},{"bufferView":2,"byteOffset":26168,"componentType":5126,"count":1273,"type":"VEC2","name":"accessorUVs"},{"bufferView":0,"byteOffset":50124,"componentType":5123,"count":175872,"type":"SCALAR","name":"accessorIndices"},{"bufferView":1,"byteOffset":109056,"componentType":5126,"count":30842,"max":[4.10008335,0.8202944,1.83589184],"min":[-4.10564661,-1.00095749,-7.621609],"type":"VEC3","name":"accessorPositions"},{"bufferView":1,"byteOffset":479160,"componentType":5126,"count":30842,"type":"VEC3","name":"accessorNormals"},{"bufferView":2,"byteOffset":36352,"componentType":5126,"count":30842,"type":"VEC2","name":"accessorUVs"},{"bufferView":0,"byteOffset":401868,"componentType":5123,"count":27744,"type":"SCALAR","name":"accessorIndices"},{"bufferView":1,"byteOffset":849264,"componentType":5126,"count":4974,"max":[0.8300665,-0.08889962,0.2230655],"min":[-0.8300616,-0.9756297,-2.67547822],"type":"VEC3","name":"accessorPositions"},{"bufferView":1,"byteOffset":908952,"componentType":5126,"count":4974,"type":"VEC3","name":"accessorNormals"},{"bufferView":2,"byteOffset":283088,"componentType":5126,"count":4974,"type":"VEC2","name":"accessorUVs"},{"bufferView":0,"byteOffset":457356,"componentType":5123,"count":6,"type":"SCALAR","name":"accessorIndices"},{"bufferView":1,"byteOffset":968640,"componentType":5126,"count":4,"max":[0.355606049,-0.215893939,-1.6255995],"min":[-0.35559392,-0.419288844,-1.95614588],"type":"VEC3","name":"accessorPositions"},{"bufferView":1,"byteOffset":968688,"componentType":5126,"count":4,"type":"VEC3","name":"accessorNormals"},{"bufferView":2,"byteOffset":322880,"componentType":5126,"count":4,"type":"VEC2","name":"accessorUVs"},{"bufferView":0,"byteOffset":457368,"componentType":5123,"count":996,"type":"SCALAR","name":"accessorIndices"},{"bufferView":1,"byteOffset":968736,"componentType":5126,"count":262,"max":[0.6613298,0.0,1.2970804],"min":[-0.6613298,-0.469373673,-1.2970804],"type":"VEC3","name":"accessorPositions"},{"bufferView":1,"byteOffset":971880,"componentType":5126,"count":262,"type":"VEC3","name":"accessorNormals"},{"bufferView":2,"byteOffset":322912,"componentType":5126,"count":262,"type":"VEC2","name":"accessorUVs"},{"bufferView":0,"byteOffset":459360,"componentType":5123,"count":96,"type":"SCALAR","name":"accessorIndices"},{"bufferView":1,"byteOffset":975024,"componentType":5126,"count":38,"max":[0.00343809556,0.253999978,0.0508],"min":[-0.0427387,-5.979119E-10,-0.0508],"type":"VEC3","name":"accessorPositions"},{"bufferView":1,"byteOffset":975480,"componentType":5126,"count":38,"type":"VEC3","name":"accessorNormals"},{"bufferView":2,"byteOffset":325008,"componentType":5126,"count":38,"type":"VEC2","name":"accessorUVs"},{"bufferView":0,"byteOffset":459552,"componentType":5123,"count":2496,"type":"SCALAR","name":"accessorIndices"},{"bufferView":1,"byteOffset":975936,"componentType":5126,"count":453,"max":[0.05956658,1.57874265E-08,0.0935213938],"min":[-0.05956658,-0.0607218854,0.0343755223],"type":"VEC3","name":"accessorPositions"},{"bufferView":1,"byteOffset":981372,"componentType":5126,"count":453,"type":"VEC3","name":"accessorNormals"},{"bufferView":2,"byteOffset":325312,"componentType":5126,"count":453,"type":"VEC2","name":"accessorUVs"},{"bufferView":0,"byteOffset":464544,"componentType":5123,"count":96,"type":"SCALAR","name":"accessorIndices"},{"bufferView":1,"byteOffset":986808,"componentType":5126,"count":38,"max":[0.00343809556,0.253999978,0.0508],"min":[-0.0427387,-5.979119E-10,-0.0508],"type":"VEC3","name":"accessorPositions"},{"bufferView":1,"byteOffset":987264,"componentType":5126,"count":38,"type":"VEC3","name":"accessorNormals"},{"bufferView":2,"byteOffset":328936,"componentType":5126,"count":38,"type":"VEC2","name":"accessorUVs"},{"bufferView":0,"byteOffset":464736,"componentType":5123,"count":2688,"type":"SCALAR","name":"accessorIndices"},{"bufferView":1,"byteOffset":987720,"componentType":5126,"count":492,"max":[0.115375817,0.5028555,0.121228948],"min":[-0.1153758,0.00514467573,0.006668041],"type":"VEC3","name":"accessorPositions"},{"bufferView":1,"byteOffset":993624,"componentType":5126,"count":492,"type":"VEC3","name":"accessorNormals"},{"bufferView":2,"byteOffset":329240,"componentType":5126,"count":492,"type":"VEC2","name":"accessorUVs"},{"bufferView":0,"byteOffset":470112,"componentType":5123,"count":114,"type":"SCALAR","name":"accessorIndices"},{"bufferView":1,"byteOffset":999528,"componentType":5126,"count":83,"max":[0.07141537,0.03556003,0.229549289],"min":[-0.0886046439,0.03555996,-0.247970745],"type":"VEC3","name":"accessorPositions"},{"bufferView":1,"byteOffset":1000524,"componentType":5126,"count":83,"type":"VEC3","name":"accessorNormals"},{"bufferView":2,"byteOffset":333176,"componentType":5126,"count":83,"type":"VEC2","name":"accessorUVs"},{"bufferView":0,"byteOffset":470340,"componentType":5123,"count":273,"type":"SCALAR","name":"accessorIndices"},{"bufferView":1,"byteOffset":1001520,"componentType":5126,"count":183,"max":[0.0330550857,0.03556003,0.208437979],"min":[-0.0476812869,0.0126999849,-0.223378614],"type":"VEC3","name":"accessorPositions"},{"bufferView":1,"byteOffset":1003716,"componentType":5126,"count":183,"type":"VEC3","name":"accessorNormals"},{"bufferView":2,"byteOffset":333840,"componentType":5126,"count":183,"type":"VEC2","name":"accessorUVs"},{"bufferView":0,"byteOffset":470888,"componentType":5123,"count":1332,"type":"SCALAR","name":"accessorIndices"},{"bufferView":1,"byteOffset":1005912,"componentType":5126,"count":330,"max":[0.4859575,0.300912917,0.19982329],"min":[-0.4948325,-0.169458956,-0.511043549],"type":"VEC3","name":"accessorPositions"},{"bufferView":1,"byteOffset":1009872,"componentType":5126,"count":330,"type":"VEC3","name":"accessorNormals"},{"bufferView":2,"byteOffset":335304,"componentType":5126,"count":330,"type":"VEC2","name":"accessorUVs"},{"bufferView":0,"byteOffset":473552,"componentType":5123,"count":564,"type":"SCALAR","name":"accessorIndices"},{"bufferView":1,"byteOffset":1013832,"componentType":5126,"count":144,"max":[0.239117578,0.2534521,0.06339442],"min":[-0.247991,-0.00143022684,-0.100071728],"type":"VEC3","name":"accessorPositions"},{"bufferView":1,"byteOffset":1015560,"componentType":5126,"count":144,"type":"VEC3","name":"accessorNormals"},{"bufferView":2,"byteOffset":337944,"componentType":5126,"count":144,"type":"VEC2","name":"accessorUVs"},{"bufferView":0,"byteOffset":474680,"componentType":5123,"count":564,"type":"SCALAR","name":"accessorIndices"},{"bufferView":1,"byteOffset":1017288,"componentType":5126,"count":144,"max":[0.270022035,0.2570168,0.0602523051],"min":[-0.2788961,0.1251687,-0.08243557],"type":"VEC3","name":"accessorPositions"},{"bufferView":1,"byteOffset":1019016,"componentType":5126,"count":144,"type":"VEC3","name":"accessorNormals"},{"bufferView":2,"byteOffset":339096,"componentType":5126,"count":144,"type":"VEC2","name":"accessorUVs"},{"bufferView":0,"byteOffset":475808,"componentType":5123,"count":564,"type":"SCALAR","name":"accessorIndices"},{"bufferView":1,"byteOffset":1020744,"componentType":5126,"count":144,"max":[0.3149924,0.256931484,0.0581278168],"min":[-0.3250903,0.002378012,-0.0987124145],"type":"VEC3","name":"accessorPositions"},{"bufferView":1,"byteOffset":1022472,"componentType":5126,"count":144,"type":"VEC3","name":"accessorNormals"},{"bufferView":2,"byteOffset":340248,"componentType":5126,"count":144,"type":"VEC2","name":"accessorUVs"},{"bufferView":0,"byteOffset":476936,"componentType":5123,"count":564,"type":"SCALAR","name":"accessorIndices"},{"bufferView":1,"byteOffset":1024200,"componentType":5126,"count":144,"max":[0.302118868,0.2570165,0.0602625869],"min":[-0.318340033,0.125168264,-0.0824239552],"type":"VEC3","name":"accessorPositions"},{"bufferView":1,"byteOffset":1025928,"componentType":5126,"count":144,"type":"VEC3","name":"accessorNormals"},{"bufferView":2,"byteOffset":341400,"componentType":5126,"count":144,"type":"VEC2","name":"accessorUVs"},{"bufferView":0,"byteOffset":478064,"componentType":5123,"count":6,"type":"SCALAR","name":"accessorIndices"},{"bufferView":1,"byteOffset":1027656,"componentType":5126,"count":4,"max":[0.304806769,-0.171450123,-1.689099],"min":[-0.3047932,-0.190500185,-1.82880116],"type":"VEC3","name":"accessorPositions"},{"bufferView":1,"byteOffset":1027704,"componentType":5126,"count":4,"type":"VEC3","name":"accessorNormals"},{"bufferView":2,"byteOffset":342552,"componentType":5126,"count":4,"type":"VEC2","name":"accessorUVs"},{"bufferView":3,"componentType":5126,"count":100,"max":[3.33333325],"min":[0.0],"type":"SCALAR","name":"accessorAnimationInput"},{"bufferView":4,"componentType":5126,"count":100,"type":"VEC3","name":"accessorAnimationPositions"},{"bufferView":3,"byteOffset":400,"componentType":5126,"count":101,"max":[3.33333325],"min":[0.0],"type":"SCALAR","name":"accessorAnimationInput"},{"bufferView":4,"byteOffset":1200,"componentType":5126,"count":101,"type":"VEC3","name":"accessorAnimationPositions"}],"bufferViews":[{"buffer":0,"byteLength":478076,"name":"bufferViewScalar"},{"buffer":0,"byteOffset":478076,"byteLength":1027752,"byteStride":12,"name":"bufferViewFloatVec3"},{"buffer":0,"byteOffset":1505828,"byteLength":342584,"byteStride":8,"name":"bufferViewFloatVec2"},{"buffer":0,"byteOffset":1848412,"byteLength":804,"name":"bufferViewAnimationFloatScalar"},{"buffer":0,"byteOffset":1849216,"byteLength":2412,"name":"bufferViewAnimationFloatVec3"}],"buffers":[{"uri":"bosco.bin","byteLength":1851628}],"materials":[{"pbrMetallicRoughness":{"baseColorFactor":[0.4666667,0.596078455,0.733333349,1.0],"metallicFactor":0.0,"roughnessFactor":0.240331292},"name":"Glass Logo"},{"pbrMetallicRoughness":{"baseColorFactor":[0.43921572,0.43921572,0.43921572,1.0],"metallicFactor":0.0,"roughnessFactor":0.358472824},"name":"Metal_Chrome"},{"pbrMetallicRoughness":{"baseColorTexture":{"index":0},"metallicFactor":0.0,"roughnessFactor":0.240331292},"name":"Menu Bar"},{"pbrMetallicRoughness":{"baseColorFactor":[0.43921572,0.43921572,0.43921572,1.0],"metallicFactor":0.0,"roughnessFactor":0.323622733},"name":"Metal_Grey_Plain"},{"pbrMetallicRoughness":{"baseColorTexture":{"index":1},"metallicFactor":0.0,"roughnessFactor":0.450053632},"name":"panel1"},{"pbrMetallicRoughness":{"baseColorFactor":[0.2509804,0.2509804,0.2509804,1.0],"metallicFactor":0.0,"roughnessFactor":0.450053632},"name":"Search Bar"},{"pbrMetallicRoughness":{"baseColorTexture":{"index":2},"metallicFactor":0.0,"roughnessFactor":0.450053632},"name":"13 - Default"},{"pbrMetallicRoughness":{"baseColorFactor":[0.1764706,0.1764706,0.1764706,1.0],"metallicFactor":0.0,"roughnessFactor":0.7022211},"name":"Fabric_Grey_Carpet"},{"pbrMetallicRoughness":{"baseColorTexture":{"index":3},"metallicFactor":0.0,"roughnessFactor":0.450053632},"normalTexture":{"index":3},"name":"21 - Default"}],"textures":[{"sampler":0,"source":0,"name":"flame.jpg"},{"sampler":1,"source":1,"name":"capture.jpg"},{"sampler":0,"source":2,"name":"thrust.jpg"},{"sampler":0,"source":3,"name":"keyboard.jpg"}],"images":[{"uri":"flame.jpg"},{"uri":"capture.jpg"},{"uri":"thrust.jpg"},{"uri":"keyboard.jpg"}],"samplers":[{"magFilter":9729,"minFilter":9987},{"magFilter":9729,"minFilter":9987,"wrapS":33071,"wrapT":33071}],"animations":[{"channels":[{"sampler":0,"target":{"node":0,"path":"translation"}},{"sampler":1,"target":{"node":4,"path":"translation"}}],"samplers":[{"input":80,"output":81},{"input":82,"output":83}],"name":"All Animations"}]}